<svg width="92" height="155" viewBox="0 0 92 155" fill="none" xmlns="http://www.w3.org/2000/svg">
<path fill-rule="evenodd" clip-rule="evenodd" d="M63.1768 11.1687C71.288 4.48057 83.5234 10.2502 83.5234 20.7631C83.5234 24.5377 81.8091 28.108 78.8633 30.468L62.0279 43.956C61.0013 42.0021 59.5899 40.2444 57.8479 38.8011C46.8419 29.6821 30.1886 37.4868 30.1548 51.7797L30.1127 69.5255L28.4321 70.8719C20.5892 77.1554 8.9611 71.5718 8.9611 61.5222C8.9611 57.9449 10.5597 54.5548 13.3198 52.279L63.1768 11.1687ZM30.0888 79.6336C17.127 86.3012 0.672802 77.0714 0.672802 61.5222C0.672802 55.4701 3.37739 49.7345 8.04689 45.8842L57.904 4.77399C71.4213 -6.37188 91.8117 3.24319 91.8117 20.7631C91.8117 27.0535 88.9547 33.0034 84.0456 36.9364L63.9503 53.0361L63.6152 73.3999C76.3943 68.7575 91.3272 77.9615 91.3272 92.9546C91.3272 99.245 88.4702 105.195 83.5611 109.128L33.1299 149.532C19.8611 160.162 0.188293 150.716 0.188293 133.714C0.188293 127.662 2.89288 121.926 7.56239 118.076L30.0416 99.5402L30.0888 79.6336ZM31.7423 108.88L12.8352 124.47C10.0752 126.746 8.47659 130.136 8.47659 133.714C8.47659 143.763 20.1047 149.347 27.9476 143.063L78.3788 102.66C81.3245 100.299 83.0389 96.7292 83.0389 92.9546C83.0389 82.7688 71.5531 77.0357 63.461 82.7719L63.1473 101.834C62.9188 115.72 46.7244 123.171 36.0301 114.311C34.2122 112.804 32.7611 110.948 31.7423 108.88ZM38.443 51.7994C38.4603 44.5133 46.9495 40.5348 52.5599 45.1833C54.5743 46.8523 55.7216 49.3459 55.6786 51.9615L54.8601 101.698C54.746 108.632 46.6587 112.353 41.3181 107.928C39.4171 106.353 38.3193 104.011 38.3252 101.542L38.443 51.7994Z" fill="white"/>
</svg>
