<svg width="44" height="44" viewBox="0 0 44 44" fill="none" xmlns="http://www.w3.org/2000/svg">
<rect y="0.0101929" width="43.9898" height="43.9898" rx="4.58227" fill="#7C3AED"/>
<path d="M21.995 30.5587L17.1439 33.4669C16.7638 33.6953 16.3287 33.8159 15.8853 33.8159C15.4418 33.8159 15.0068 33.6953 14.6267 33.4669L10.9609 31.2674C10.6001 31.0507 10.3014 30.7444 10.0938 30.3784C9.88609 30.0123 9.7765 29.5988 9.77557 29.1779V25.2188C9.7765 24.798 9.88609 24.3845 10.0938 24.0184C10.3014 23.6523 10.6001 23.3461 10.9609 23.1293L15.8853 20.1722M21.995 30.5587V23.838M21.995 30.5587L26.8461 33.4669C27.2262 33.6953 27.6612 33.8159 28.1047 33.8159C28.5481 33.8159 28.9832 33.6953 29.3633 33.4669L33.0291 31.2674C33.3898 31.0507 33.6885 30.7444 33.8962 30.3784C34.1038 30.0123 34.2134 29.5988 34.2144 29.1779V25.2188C34.2134 24.798 34.1038 24.3845 33.8962 24.0184C33.6885 23.6523 33.3898 23.3461 33.0291 23.1293L28.1047 20.1722M21.995 23.838L15.8853 20.1722M21.995 23.838L15.8853 27.5039M21.995 23.838L28.1047 20.1722M21.995 23.838L28.1047 27.5039M21.995 23.838V17.1174M15.8853 20.1722V14.8324C15.8862 14.4115 15.9958 13.998 16.2034 13.6319C16.4111 13.2658 16.7098 12.9596 17.0705 12.7428L20.7364 10.5433C21.1165 10.315 21.5515 10.1943 21.995 10.1943C22.4384 10.1943 22.8735 10.315 23.2536 10.5433L26.9194 12.7428C27.2801 12.9596 27.5788 13.2658 27.7865 13.6319C27.9941 13.998 28.1037 14.4115 28.1047 14.8324V20.1722M15.8853 27.5039L10.0933 24.0213M15.8853 27.5039V33.8213M28.1047 27.5039L33.8966 24.0213M28.1047 27.5039V33.8213M21.995 17.1174L16.203 13.6349M21.995 17.1174L27.787 13.6349" stroke="white" stroke-width="1.83291" stroke-linecap="round" stroke-linejoin="round"/>
</svg>
