<svg width="28" height="28" viewBox="0 0 28 28" fill="none" xmlns="http://www.w3.org/2000/svg">
<path d="M14 23.3333L8.70666 26.5066C8.2919 26.7558 7.81717 26.8875 7.33332 26.8875C6.84947 26.8875 6.37474 26.7558 5.95999 26.5066L1.95999 24.1066C1.56633 23.8701 1.24043 23.536 1.01384 23.1365C0.787252 22.7371 0.667663 22.2859 0.666656 21.8266V17.5066C0.667663 17.0474 0.787252 16.5962 1.01384 16.1968C1.24043 15.7973 1.56633 15.4632 1.95999 15.2266L7.33332 12M14 23.3333V16M14 23.3333L19.2933 26.5066C19.7081 26.7558 20.1828 26.8875 20.6667 26.8875C21.1505 26.8875 21.6252 26.7558 22.04 26.5066L26.04 24.1066C26.4336 23.8701 26.7596 23.536 26.9861 23.1365C27.2127 22.7371 27.3323 22.2859 27.3333 21.8266V17.5066C27.3323 17.0474 27.2127 16.5962 26.9861 16.1968C26.7596 15.7973 26.4336 15.4632 26.04 15.2266L20.6667 12M14 16L7.33332 12M14 16L7.33332 20M14 16L20.6667 12M14 16L20.6667 20M14 16V8.66665M7.33332 12V6.17331C7.33433 5.71408 7.45392 5.26288 7.68051 4.86343C7.90709 4.46398 8.233 4.12982 8.62666 3.89331L12.6267 1.49331C13.0414 1.24413 13.5161 1.11249 14 1.11249C14.4838 1.11249 14.9586 1.24413 15.3733 1.49331L19.3733 3.89331C19.767 4.12982 20.0929 4.46398 20.3195 4.86343C20.5461 5.26288 20.6656 5.71408 20.6667 6.17331V12M7.33332 20L1.01332 16.2M7.33332 20V26.8933M20.6667 20L26.9867 16.2M20.6667 20V26.8933M14 8.66665L7.67999 4.86665M14 8.66665L20.32 4.86665" stroke="white" stroke-linecap="round" stroke-linejoin="round"/>
</svg>
