<svg width="16" height="16" viewBox="0 0 16 16" fill="none" xmlns="http://www.w3.org/2000/svg">
<path d="M6.00001 8.01022L7.33334 9.34355L10 6.67688M2.56667 5.75688C2.46937 5.31857 2.48431 4.86278 2.61011 4.43178C2.73591 4.00077 2.9685 3.60851 3.28632 3.29136C3.60413 2.97422 3.99688 2.74245 4.42814 2.61755C4.85941 2.49265 5.31523 2.47866 5.75334 2.57688C5.99448 2.19975 6.32668 1.88939 6.71931 1.67441C7.11194 1.45943 7.55237 1.34674 8.00001 1.34674C8.44764 1.34674 8.88807 1.45943 9.28071 1.67441C9.67334 1.88939 10.0055 2.19975 10.2467 2.57688C10.6855 2.47823 11.1421 2.49216 11.574 2.61736C12.006 2.74256 12.3992 2.97498 12.7172 3.29299C13.0352 3.61099 13.2677 4.00427 13.3929 4.43622C13.5181 4.86817 13.532 5.32477 13.4333 5.76355C13.8105 6.00469 14.1208 6.33689 14.3358 6.72952C14.5508 7.12215 14.6635 7.56258 14.6635 8.01022C14.6635 8.45785 14.5508 8.89828 14.3358 9.29092C14.1208 9.68355 13.8105 10.0157 13.4333 10.2569C13.5316 10.695 13.5176 11.1508 13.3927 11.5821C13.2678 12.0133 13.036 12.4061 12.7189 12.7239C12.4017 13.0417 12.0094 13.2743 11.5784 13.4001C11.1474 13.5259 10.6917 13.5409 10.2533 13.4436C10.0125 13.8221 9.68006 14.1338 9.28676 14.3498C8.89346 14.5657 8.45202 14.6789 8.00334 14.6789C7.55466 14.6789 7.11322 14.5657 6.71992 14.3498C6.32662 14.1338 5.99417 13.8221 5.75334 13.4436C5.31523 13.5418 4.85941 13.5278 4.42814 13.4029C3.99688 13.278 3.60413 13.0462 3.28632 12.7291C2.9685 12.4119 2.73591 12.0197 2.61011 11.5887C2.48431 11.1577 2.46937 10.7019 2.56667 10.2636C2.18664 10.023 1.87362 9.69033 1.65671 9.29636C1.4398 8.90239 1.32605 8.45996 1.32605 8.01022C1.32605 7.56048 1.4398 7.11805 1.65671 6.72407C1.87362 6.3301 2.18664 5.99739 2.56667 5.75688Z" stroke="#6D28D9" stroke-linecap="round" stroke-linejoin="round"/>
</svg>
