<svg width="37" height="32" viewBox="0 0 37 32" fill="none" xmlns="http://www.w3.org/2000/svg">
<path d="M24.4706 24.7523C24.4706 26.5007 27.0932 29.9976 27.9674 29.9976C30.5901 29.9976 32.9207 27.083 34.0869 24.7523C35.2531 21.8377 34.9611 14.5538 31.4643 4.64557C28.9168 2.87093 26.219 2.3027 23.5964 2.02295L21.8969 5.38515C19.5522 4.98038 17.1554 4.98038 14.8106 5.38515L13.1059 2.02295C10.4833 2.3027 7.7855 2.87093 5.23806 4.64557C1.74123 14.5538 1.44925 21.8377 2.61544 24.7523C3.78163 27.083 6.11227 29.9976 8.73489 29.9976C9.60909 29.9976 12.2317 26.5007 12.2317 24.7523M9.60918 23.8781C15.7286 25.6265 20.9739 25.6265 27.0933 23.8781M11.3576 16.0103C11.3576 16.474 11.5418 16.9187 11.8697 17.2466C12.1976 17.5745 12.6423 17.7587 13.106 17.7587C13.5697 17.7587 14.0144 17.5745 14.3423 17.2466C14.6702 16.9187 14.8544 16.474 14.8544 16.0103C14.8544 15.5465 14.6702 15.1018 14.3423 14.7739C14.0144 14.446 13.5697 14.2618 13.106 14.2618C12.6423 14.2618 12.1976 14.446 11.8697 14.7739C11.5418 15.1018 11.3576 15.5465 11.3576 16.0103ZM21.8481 16.0103C21.8481 16.474 22.0323 16.9187 22.3602 17.2466C22.6881 17.5745 23.1328 17.7587 23.5965 17.7587C24.0602 17.7587 24.5049 17.5745 24.8328 17.2466C25.1607 16.9187 25.3449 16.474 25.3449 16.0103C25.3449 15.5465 25.1607 15.1018 24.8328 14.7739C24.5049 14.446 24.0602 14.2618 23.5965 14.2618C23.1328 14.2618 22.6881 14.446 22.3602 14.7739C22.0323 15.1018 21.8481 15.5465 21.8481 16.0103Z" stroke="white" stroke-width="3.49683" stroke-linecap="round" stroke-linejoin="round"/>
</svg>
