<svg width="44" height="44" viewBox="0 0 44 44" fill="none" xmlns="http://www.w3.org/2000/svg">
<rect width="44" height="44" rx="4.58333" fill="#7C3AED"/>
<path d="M26.8889 17.1111V13.4445C26.8889 12.1 27.9889 11 29.3334 11M22 23.2222H26.8889M22 29.3334H29.3334C29.9817 29.3334 30.6034 29.5909 31.0618 30.0493C31.5203 30.5077 31.7778 31.1295 31.7778 31.7778V33M22 17.1111H31.7778M22 12.8334C22.0046 12.0687 21.7222 11.3301 21.2088 10.7635C20.6953 10.1969 19.9881 9.84335 19.2267 9.77274C18.4653 9.70212 17.7051 9.91956 17.0962 10.3821C16.4873 10.8447 16.074 11.5187 15.9378 12.2711C15.5349 12.3466 15.1513 12.5024 14.8099 12.7292C14.4684 12.956 14.1761 13.2492 13.9503 13.5913C13.7245 13.9334 13.5698 14.3175 13.4955 14.7206C13.4212 15.1237 13.4288 15.5377 13.5178 15.9378C12.9662 16.0357 12.4521 16.2834 12.0317 16.6539C11.6114 17.0243 11.301 17.5031 11.1344 18.0381C10.9679 18.573 10.9517 19.1434 11.0875 19.687C11.2233 20.2305 11.5059 20.7263 11.9045 21.12C11.2341 21.4295 10.6728 21.9342 10.294 22.5679C9.91524 23.2017 9.7366 23.9351 9.78151 24.672C9.82641 25.409 10.0928 26.1153 10.5457 26.6984C10.9986 27.2814 11.6171 27.7142 12.32 27.94C12.1858 28.4471 12.1844 28.9801 12.3159 29.4879C12.4473 29.9956 12.7073 30.461 13.0708 30.8392C13.4342 31.2174 13.8889 31.4956 14.391 31.6472C14.8931 31.7987 15.4258 31.8184 15.9378 31.7045C16.0647 32.4034 16.4311 33.0363 16.9741 33.4944C17.5171 33.9524 18.2028 34.2069 18.9131 34.2141C19.6235 34.2214 20.3141 33.9809 20.8663 33.534C21.4186 33.0871 21.7978 32.4618 21.9389 31.7656L22 31.7778V12.8334ZM32.3889 17.1111C32.3889 17.2732 32.3245 17.4286 32.2099 17.5433C32.0953 17.6579 31.9399 17.7222 31.7778 17.7222C31.6157 17.7222 31.4603 17.6579 31.3457 17.5433C31.2311 17.4286 31.1667 17.2732 31.1667 17.1111C31.1667 16.9491 31.2311 16.7936 31.3457 16.679C31.4603 16.5644 31.6157 16.5 31.7778 16.5C31.9399 16.5 32.0953 16.5644 32.2099 16.679C32.3245 16.7936 32.3889 16.9491 32.3889 17.1111ZM27.5 23.2222C27.5 23.3843 27.4356 23.5398 27.321 23.6544C27.2064 23.769 27.051 23.8334 26.8889 23.8334C26.7268 23.8334 26.5714 23.769 26.4568 23.6544C26.3422 23.5398 26.2778 23.3843 26.2778 23.2222C26.2778 23.0602 26.3422 22.9047 26.4568 22.7901C26.5714 22.6755 26.7268 22.6111 26.8889 22.6111C27.051 22.6111 27.2064 22.6755 27.321 22.7901C27.4356 22.9047 27.5 23.0602 27.5 23.2222ZM32.3889 33C32.3889 33.1621 32.3245 33.3175 32.2099 33.4321C32.0953 33.5467 31.9399 33.6111 31.7778 33.6111C31.6157 33.6111 31.4603 33.5467 31.3457 33.4321C31.2311 33.3175 31.1667 33.1621 31.1667 33C31.1667 32.8379 31.2311 32.6825 31.3457 32.5679C31.4603 32.4533 31.6157 32.3889 31.7778 32.3889C31.9399 32.3889 32.0953 32.4533 32.2099 32.5679C32.3245 32.6825 32.3889 32.8379 32.3889 33ZM29.9445 11C29.9445 11.1621 29.8801 11.3175 29.7655 11.4321C29.6509 11.5467 29.4954 11.6111 29.3334 11.6111C29.1713 11.6111 29.0158 11.5467 28.9012 11.4321C28.7866 11.3175 28.7222 11.1621 28.7222 11C28.7222 10.8379 28.7866 10.6825 28.9012 10.5679C29.0158 10.4533 29.1713 10.3889 29.3334 10.3889C29.4954 10.3889 29.6509 10.4533 29.7655 10.5679C29.8801 10.6825 29.9445 10.8379 29.9445 11Z" stroke="white" stroke-width="1.83333" stroke-linecap="round" stroke-linejoin="round"/>
</svg>
