<svg width="36" height="38" viewBox="0 0 36 38" fill="none" xmlns="http://www.w3.org/2000/svg">
<path d="M13.2941 31.9968C5.2 34.6321 5.2 27.2909 2 26.3497M24.5882 35.7615V29.1733C24.5882 27.2909 24.7765 26.538 23.6471 25.4086C28.9176 24.8439 34 22.7733 34 14.1145C33.9977 11.865 33.1201 9.70468 31.5529 8.09092C32.2879 6.13698 32.2203 3.97163 31.3647 2.06739C31.3647 2.06739 29.2941 1.50269 24.7765 4.51445C20.9501 3.51791 16.9323 3.51791 13.1059 4.51445C8.58823 1.50269 6.51765 2.06739 6.51765 2.06739C5.66208 3.97163 5.59442 6.13698 6.32941 8.09092C4.76226 9.70468 3.88464 11.865 3.88235 14.1145C3.88235 22.7733 8.96471 24.8439 14.2353 25.4086C13.1059 26.538 13.1059 27.6674 13.2941 29.1733V35.7615" stroke="white" stroke-width="3.76471" stroke-linecap="round" stroke-linejoin="round"/>
</svg>
