<svg width="36" height="36" viewBox="0 0 36 36" fill="none" xmlns="http://www.w3.org/2000/svg">
<path d="M33.9009 16.232C34.3127 19.9149 33.4334 23.6266 31.4129 26.7333C29.3925 29.84 26.3563 32.149 22.8228 33.266C19.2893 34.3831 15.4776 34.2389 12.0385 32.8581C8.59947 31.4773 5.74638 28.9456 3.96641 25.6951C2.18645 22.4447 1.59 18.6772 2.27892 15.0359C2.96784 11.3946 4.89939 8.10534 7.74376 5.72981C10.5881 3.35427 14.1689 2.03977 17.8747 2.01074C21.5805 1.98172 25.1814 3.23998 28.0626 5.57067L23.3426 9.82311C21.651 8.71956 19.6591 8.16696 17.6407 8.24125C15.6223 8.31554 13.6764 9.01307 12.0705 10.238C10.4645 11.4629 9.27733 13.1551 8.67201 15.0821C8.06669 17.009 8.07297 19.0761 8.68997 20.9993C9.30698 22.9225 10.5044 24.6075 12.1178 25.8227C13.7311 27.0378 15.6812 27.7235 17.7 27.7855C19.7189 27.8476 21.7074 27.2829 23.3923 26.1691C25.0772 25.0553 26.3758 23.447 27.1098 21.5653H19.7764V16.232H33.9009Z" stroke="white" stroke-width="3.55555" stroke-linecap="round" stroke-linejoin="round"/>
</svg>
