<svg width="36" height="37" viewBox="0 0 36 37" fill="none" xmlns="http://www.w3.org/2000/svg">
<path d="M10 16.0103V26.0103M10 10.0103V10.0303M18 26.0103V16.0103M26 26.0103V20.0103C26 18.9494 25.5786 17.932 24.8284 17.1818C24.0783 16.4317 23.0609 16.0103 22 16.0103C20.9391 16.0103 19.9217 16.4317 19.1716 17.1818C18.4214 17.932 18 18.9494 18 20.0103M2 6.01025C2 4.94939 2.42143 3.93197 3.17157 3.18183C3.92172 2.43168 4.93913 2.01025 6 2.01025H30C31.0609 2.01025 32.0783 2.43168 32.8284 3.18183C33.5786 3.93197 34 4.94939 34 6.01025V30.0103C34 31.0711 33.5786 32.0885 32.8284 32.8387C32.0783 33.5888 31.0609 34.0103 30 34.0103H6C4.93913 34.0103 3.92172 33.5888 3.17157 32.8387C2.42143 32.0885 2 31.0711 2 30.0103V6.01025Z" stroke="white" stroke-width="4" stroke-linecap="round" stroke-linejoin="round"/>
</svg>
