<svg width="12" height="12" viewBox="0 0 12 12" fill="none" xmlns="http://www.w3.org/2000/svg">
<path d="M5.46666 5.96657H5.96666V5.46657V0.933236C5.96666 0.914828 5.98159 0.899902 5.99999 0.899902C6.0184 0.899902 6.03333 0.914829 6.03333 0.933236V5.46657V5.96657H6.53333H11.0667C11.0851 5.96657 11.1 5.98152 11.1 5.9999C11.1 6.01828 11.085 6.03324 11.0667 6.03324H6.53333H6.03333V6.53324V11.0666C6.03333 11.085 6.01838 11.0999 5.99999 11.0999C5.98161 11.0999 5.96666 11.085 5.96666 11.0666V6.53324V6.03324H5.46666H0.933327C0.914921 6.03324 0.899994 6.01831 0.899994 5.9999C0.899994 5.9815 0.91492 5.96657 0.933327 5.96657H5.46666Z" fill="#FAFAFA" stroke="#FAFAFA"/>
</svg>
