<svg width="26" height="28" viewBox="0 0 26 28" fill="none" xmlns="http://www.w3.org/2000/svg">
<path d="M13.2933 0.666687H12.7067C11.9994 0.666687 11.3211 0.947638 10.8211 1.44774C10.321 1.94783 10.04 2.62611 10.04 3.33335V3.57335C10.0395 4.04099 9.91608 4.50027 9.68205 4.90514C9.44803 5.31 9.11165 5.6462 8.70667 5.88002L8.13334 6.21335C7.72795 6.4474 7.2681 6.57062 6.8 6.57062C6.3319 6.57062 5.87205 6.4474 5.46667 6.21335L5.26667 6.10669C4.65476 5.7537 3.92779 5.65795 3.24534 5.84043C2.56289 6.02292 1.98074 6.46873 1.62667 7.08002L1.33334 7.58669C0.980353 8.1986 0.884594 8.92557 1.06708 9.60802C1.24957 10.2905 1.69538 10.8726 2.30667 11.2267L2.50667 11.36C2.9097 11.5927 3.24483 11.9268 3.47874 12.3291C3.71265 12.7315 3.83719 13.188 3.84 13.6534V14.3334C3.84187 14.8032 3.71954 15.2653 3.48539 15.6727C3.25125 16.0801 2.91361 16.4184 2.50667 16.6534L2.30667 16.7734C1.69538 17.1274 1.24957 17.7096 1.06708 18.392C0.884594 19.0745 0.980353 19.8014 1.33334 20.4134L1.62667 20.92C1.98074 21.5313 2.56289 21.9771 3.24534 22.1596C3.92779 22.3421 4.65476 22.2463 5.26667 21.8934L5.46667 21.7867C5.87205 21.5526 6.3319 21.4294 6.8 21.4294C7.2681 21.4294 7.72795 21.5526 8.13334 21.7867L8.70667 22.12C9.11165 22.3538 9.44803 22.69 9.68205 23.0949C9.91608 23.4998 10.0395 23.9591 10.04 24.4267V24.6667C10.04 25.3739 10.321 26.0522 10.8211 26.5523C11.3211 27.0524 11.9994 27.3334 12.7067 27.3334H13.2933C14.0006 27.3334 14.6789 27.0524 15.179 26.5523C15.6791 26.0522 15.96 25.3739 15.96 24.6667V24.4267C15.9605 23.9591 16.0839 23.4998 16.318 23.0949C16.552 22.69 16.8884 22.3538 17.2933 22.12L17.8667 21.7867C18.2721 21.5526 18.7319 21.4294 19.2 21.4294C19.6681 21.4294 20.128 21.5526 20.5333 21.7867L20.7333 21.8934C21.3452 22.2463 22.0722 22.3421 22.7547 22.1596C23.4371 21.9771 24.0193 21.5313 24.3733 20.92L24.6667 20.4C25.0197 19.7881 25.1154 19.0611 24.9329 18.3787C24.7504 17.6962 24.3046 17.1141 23.6933 16.76L23.4933 16.6534C23.0864 16.4184 22.7488 16.0801 22.5146 15.6727C22.2805 15.2653 22.1581 14.8032 22.16 14.3334V13.6667C22.1581 13.1968 22.2805 12.7347 22.5146 12.3273C22.7488 11.9199 23.0864 11.5816 23.4933 11.3467L23.6933 11.2267C24.3046 10.8726 24.7504 10.2905 24.9329 9.60802C25.1154 8.92557 25.0197 8.1986 24.6667 7.58669L24.3733 7.08002C24.0193 6.46873 23.4371 6.02292 22.7547 5.84043C22.0722 5.65795 21.3452 5.7537 20.7333 6.10669L20.5333 6.21335C20.128 6.4474 19.6681 6.57062 19.2 6.57062C18.7319 6.57062 18.2721 6.4474 17.8667 6.21335L17.2933 5.88002C16.8884 5.6462 16.552 5.31 16.318 4.90514C16.0839 4.50027 15.9605 4.04099 15.96 3.57335V3.33335C15.96 2.62611 15.6791 1.94783 15.179 1.44774C14.6789 0.947638 14.0006 0.666687 13.2933 0.666687Z" stroke="#FAFAFA" stroke-linecap="round" stroke-linejoin="round"/>
<path d="M13 18C15.2091 18 17 16.2092 17 14C17 11.7909 15.2091 10 13 10C10.7909 10 9 11.7909 9 14C9 16.2092 10.7909 18 13 18Z" stroke="#FAFAFA" stroke-linecap="round" stroke-linejoin="round"/>
</svg>
