<svg width="36" height="36" viewBox="0 0 36 36" fill="none" xmlns="http://www.w3.org/2000/svg">
<path d="M10.8889 17.962C15.3333 15.3433 20.6667 16.2322 24.2222 18.8989M12.6667 23.3434C15.3333 21.5656 19.7778 21.5656 21.5556 24.2323M9.11111 12.6768C12.6667 10.899 19.7778 9.12122 26.8889 13.5657M2 18.0102C2 20.1113 2.41385 22.1919 3.21793 24.1331C4.022 26.0743 5.20055 27.8382 6.68629 29.3239C8.17203 30.8096 9.93586 31.9882 11.8771 32.7923C13.8183 33.5963 15.8989 34.0102 18 34.0102C20.1012 34.0102 22.1817 33.5963 24.1229 32.7923C26.0641 31.9882 27.828 30.8096 29.3137 29.3239C30.7994 27.8382 31.978 26.0743 32.7821 24.1331C33.5861 22.1919 34 20.1113 34 18.0102C34 15.909 33.5861 13.8285 32.7821 11.8873C31.978 9.94605 30.7994 8.18222 29.3137 6.69648C27.828 5.21075 26.0641 4.0322 24.1229 3.22812C22.1817 2.42405 20.1012 2.01019 18 2.01019C15.8989 2.01019 13.8183 2.42405 11.8771 3.22812C9.93586 4.0322 8.17203 5.21075 6.68629 6.69648C5.20055 8.18222 4.022 9.94605 3.21793 11.8873C2.41385 13.8285 2 15.909 2 18.0102Z" stroke="white" stroke-width="3.55556" stroke-linecap="round" stroke-linejoin="round"/>
</svg>
