<svg width="36" height="38" viewBox="0 0 36 38" fill="none" xmlns="http://www.w3.org/2000/svg">
<path d="M25.982 10.0043V17.9983M17.988 10.0043V17.9983M2 4.00876V25.9923C2 26.5224 2.21056 27.0307 2.58535 27.4055C2.96014 27.7803 3.46847 27.9908 3.99851 27.9908H7.99552V35.9849L15.9895 27.9908H27.1492C27.6808 27.9908 28.1884 27.781 28.5621 27.4053L33.3885 22.5809C33.7623 22.2052 33.9741 21.6975 33.9741 21.1659V4.00876C33.9741 3.47872 33.7635 2.9704 33.3888 2.5956C33.014 2.22081 32.5056 2.01025 31.9756 2.01025H3.99651C3.46647 2.01025 2.95814 2.22081 2.58335 2.5956C2.20856 2.9704 2 3.47872 2 4.00876Z" stroke="white" stroke-width="3.99701" stroke-linecap="round" stroke-linejoin="round"/>
</svg>
