<svg width="20" height="32" viewBox="0 0 20 32" fill="none" xmlns="http://www.w3.org/2000/svg">
<path fill-rule="evenodd" clip-rule="evenodd" d="M13.0868 2.32047C14.772 0.930902 17.3141 2.12962 17.3141 4.31384C17.3141 5.09807 16.9579 5.83984 16.3459 6.33018L12.8481 9.13251C12.6348 8.72655 12.3416 8.36137 11.9796 8.0615C9.69297 6.16689 6.23301 7.78842 6.22597 10.758L6.21724 14.4449L5.86807 14.7247C4.2386 16.0302 1.82268 14.8701 1.82268 12.7821C1.82268 12.0389 2.15482 11.3346 2.72825 10.8617L13.0868 2.32047ZM6.21226 16.545C3.51927 17.9303 0.100665 16.0127 0.100665 12.7821C0.100665 11.5247 0.662583 10.3331 1.63274 9.53311L11.9913 0.991867C14.7997 -1.32385 19.0361 0.673813 19.0361 4.31384C19.0361 5.62076 18.4425 6.85693 17.4226 7.67408L13.2475 11.019L13.1779 15.2499C15.8329 14.2854 18.9355 16.1976 18.9355 19.3127C18.9355 20.6196 18.3419 21.8558 17.3219 22.6729L6.8441 31.0674C4.08731 33.2761 0 31.3134 0 27.781C0 26.5235 0.561919 25.3319 1.53208 24.5319L6.20247 20.6809L6.21226 16.545ZM6.5558 22.6215L2.62759 25.8605C2.05415 26.3334 1.72202 27.0377 1.72202 27.781C1.72202 29.8689 4.13793 31.029 5.76741 29.7235L16.2452 21.329C16.8572 20.8387 17.2134 20.0969 17.2134 19.3127C17.2134 17.1964 14.8271 16.0053 13.1458 17.197L13.0807 21.1575C13.0332 24.0426 9.66855 25.5906 7.44667 23.7497C7.06895 23.4367 6.76746 23.051 6.5558 22.6215ZM7.94798 10.7621C7.95157 9.2483 9.71532 8.4217 10.881 9.3875C11.2995 9.73426 11.5379 10.2523 11.5289 10.7958L11.3589 21.1292C11.3352 22.57 9.65491 23.343 8.54533 22.4237C8.15035 22.0964 7.92229 21.6098 7.9235 21.0969L7.94798 10.7621Z" fill="white"/>
</svg>
